<svg width="32" height="33" viewBox="0 0 32 33" fill="none" xmlns="http://www.w3.org/2000/svg">
<g clip-path="url(#clip0_4_43)">
<path d="M0 0.77002V32.77H32V0.77002H0ZM23.5 17.32C23.5 18.52 23.35 19.77 23.35 19.77C23.35 19.77 23.2 20.82 22.75 21.27C22.2 21.87 21.55 21.87 21.25 21.92C19.15 22.02 16 22.07 16 22.07C16 22.07 12.1 22.02 10.9 21.92C10.55 21.87 9.8 21.87 9.25 21.27C8.8 20.82 8.65 19.77 8.65 19.77C8.65 19.77 8.5 18.57 8.5 17.32V16.17C8.5 14.97 8.65 13.72 8.65 13.72C8.65 13.72 8.8 12.67 9.25 12.22C9.8 11.62 10.45 11.62 10.75 11.57C12.85 11.42 16 11.42 16 11.42C16 11.42 19.15 11.42 21.25 11.57C21.55 11.62 22.2 11.62 22.75 12.22C23.2 12.67 23.35 13.72 23.35 13.72C23.35 13.72 23.5 14.92 23.5 16.17V17.32ZM14.45 18.72L18.5 16.62L14.45 14.52V18.72Z" fill="white"/>
</g>
<defs>
<clipPath id="clip0_4_43">
<rect width="32" height="32" fill="white" transform="translate(0 0.77002)"/>
</clipPath>
</defs>
</svg>
