<svg width="32" height="33" viewBox="0 0 32 33" fill="none" xmlns="http://www.w3.org/2000/svg">
<g clip-path="url(#clip0_4_37)">
<path d="M0 0.77002V32.77H32V0.77002H0ZM22.35 13.52C22.35 13.67 22.35 13.82 22.35 13.92C22.35 18.27 19.05 23.27 13.05 23.27C11.2 23.27 9.45 22.72 8 21.82C8.25 21.87 8.5 21.87 8.8 21.87C10.35 21.87 11.75 21.37 12.9 20.47C11.45 20.42 10.25 19.47 9.85 18.17C10.05 18.22 10.25 18.22 10.45 18.22C10.75 18.22 11.05 18.17 11.3 18.12C9.8 17.82 8.65 16.47 8.65 14.92V14.87C9.1 15.12 9.6 15.27 10.15 15.27C9.25 14.67 8.7 13.67 8.7 12.52C8.7 11.92 8.85 11.37 9.15 10.87C10.75 12.87 13.2 14.17 15.9 14.32C15.85 14.07 15.8 13.82 15.8 13.57C15.8 11.77 17.25 10.27 19.1 10.27C20.05 10.27 20.9 10.67 21.5 11.32C22.25 11.17 22.95 10.92 23.6 10.52C23.35 11.27 22.85 11.92 22.15 12.32C22.8 12.22 23.45 12.07 24.05 11.82C23.55 12.47 23 13.02 22.35 13.52Z" fill="white"/>
</g>
<defs>
<clipPath id="clip0_4_37">
<rect width="32" height="32" fill="white" transform="translate(0 0.77002)"/>
</clipPath>
</defs>
</svg>
