<svg width="31" height="31" viewBox="0 0 31 31" fill="none" xmlns="http://www.w3.org/2000/svg">
<path d="M22.6887 11.2481C22.1262 11.4825 21.5637 11.67 20.9075 11.7169C21.5637 11.3419 22.0325 10.7325 22.2668 10.0294C21.6575 10.4044 21.0012 10.6387 20.2981 10.7794C19.7356 10.17 18.9387 9.795 18.095 9.795C16.4075 9.795 15.0012 11.1544 15.0012 12.8887C15.0012 13.1231 15.0481 13.3575 15.095 13.5919C12.5168 13.4512 10.2668 12.2325 8.76685 10.3575C8.4856 10.8262 8.34497 11.3419 8.34497 11.9044C8.34497 12.9825 8.90747 13.92 9.70435 14.4825C9.18872 14.4825 8.71997 14.3419 8.2981 14.1075V14.1544C8.2981 15.6544 9.37622 16.8731 10.7825 17.1544C10.5012 17.2012 10.2668 17.2481 9.9856 17.2481C9.7981 17.2481 9.6106 17.2481 9.4231 17.2012C9.7981 18.42 10.97 19.3106 12.2825 19.3575C11.2512 20.2012 9.89185 20.67 8.43872 20.67C8.20435 20.67 7.9231 20.67 7.68872 20.6231C9.0481 21.5137 10.6887 21.9825 12.4231 21.9825C18.095 21.9825 21.1887 17.295 21.1887 13.2169C21.1887 13.0762 21.1887 12.9356 21.1887 12.8419C21.7512 12.3731 22.2668 11.8575 22.6887 11.2481Z" fill="white"/>
</svg>
