<svg width="31" height="31" viewBox="0 0 31 31" fill="none" xmlns="http://www.w3.org/2000/svg">
<path d="M22.7993 13.0762C22.7993 13.0762 22.6587 12.0919 22.2368 11.67C21.7212 11.1075 21.1118 11.1075 20.8306 11.0606C18.8618 10.92 15.9087 10.92 15.9087 10.92C15.9087 10.92 12.9556 10.92 10.9868 11.0606C10.7056 11.1075 10.0962 11.1075 9.58057 11.67C9.15869 12.0919 9.01807 13.0762 9.01807 13.0762C9.01807 13.0762 8.87744 14.2012 8.87744 15.3731V16.4512C8.87744 17.5762 9.01807 18.7481 9.01807 18.7481C9.01807 18.7481 9.15869 19.7325 9.58057 20.1544C10.0962 20.7169 10.7993 20.7169 11.1274 20.7638C12.2524 20.8575 15.9087 20.9044 15.9087 20.9044C15.9087 20.9044 18.8618 20.9044 20.8306 20.7638C21.1118 20.7169 21.7212 20.7169 22.2368 20.1544C22.6587 19.7325 22.7993 18.7481 22.7993 18.7481C22.7993 18.7481 22.9399 17.6231 22.9399 16.4512V15.3731C22.9399 14.2012 22.7993 13.0762 22.7993 13.0762ZM14.4556 17.7169V13.7794L18.2524 15.7481L14.4556 17.7169Z" fill="white"/>
</svg>
